<?xml version="1.0" encoding="UTF-8" standalone="no"?>
<!-- Created with Inkscape (http://www.inkscape.org/) -->

<svg
   version="1.1"
   id="svg1"
   width="133.33333"
   height="133.33333"
   viewBox="0 0 133.33333 133.33333"
   sodipodi:docname="icons8-chip.svg"
   inkscape:version="1.3.2 (091e20ef0f, 2023-11-25, custom)"
   xmlns:inkscape="http://www.inkscape.org/namespaces/inkscape"
   xmlns:sodipodi="http://sodipodi.sourceforge.net/DTD/sodipodi-0.dtd"
   xmlns="http://www.w3.org/2000/svg"
   xmlns:svg="http://www.w3.org/2000/svg">
  <defs
     id="defs1" />
  <sodipodi:namedview
     id="namedview1"
     pagecolor="#ffffff"
     bordercolor="#000000"
     borderopacity="0.25"
     inkscape:showpageshadow="2"
     inkscape:pageopacity="0.0"
     inkscape:pagecheckerboard="0"
     inkscape:deskcolor="#d1d1d1"
     inkscape:zoom="3.1200001"
     inkscape:cx="139.74358"
     inkscape:cy="66.025638"
     inkscape:window-width="1904"
     inkscape:window-height="1022"
     inkscape:window-x="8"
     inkscape:window-y="22"
     inkscape:window-maximized="0"
     inkscape:current-layer="g1" />
  <g
     inkscape:groupmode="layer"
     inkscape:label="Image"
     id="g1">
    <path
       id="rect1-6-1-6"
       style="fill:#000000;fill-opacity:0.34902;stroke:none;stroke-width:3;stroke-dasharray:none;stroke-opacity:1"
       d="m 98.68965,13.02999 c -5.200923,0.0864 -10.406612,-6.4e-4 -15.609362,0.04126 -2.18047,0.04131 -4.37205,-0.0271 -6.5452,0.11119 -1.07051,0.157238 -2.10499,0.550728 -3.01731,1.130756 -1.86582,-1.192879 -4.14895,-1.389841 -6.30546,-1.235804 -2.704972,0.03433 -5.455992,-0.207065 -8.123092,0.326775 -0.68438,0.191003 -1.34354,0.47699 -1.94841,0.850435 -1.84758,-1.150272 -4.07793,-1.326696 -6.19922,-1.191406 -4.03272,0.05968 -8.078459,-0.119841 -12.102239,0.141217 -3.105642,0.482864 -5.702636,2.992061 -6.520805,5.993549 -3.988469,0.02944 -7.990204,-0.122785 -11.968759,0.179847 -7.100004,0.990367 -12.9793741,7.636316 -12.8832041,14.842404 -0.0668,9.690519 -0.0132,19.38182 -0.032,29.07267 0.0107,13.386092 -0.0285,26.774533 0.0644,40.159077 0.5224801,7.35736 7.1476301,13.77066 14.5607061,13.8499 3.857325,0.11796 7.718043,-3.1e-4 11.576808,0.0484 25.511714,-0.009 51.024815,0.0255 76.535657,-0.0446 7.37627,-0.40713 13.88957,-6.96161 14.07033,-14.37954 0.13458,-3.890321 0.004,-7.784604 0.0567,-11.676624 -0.0107,-19.352321 0.036,-38.706141 -0.0553,-58.057478 -0.46912,-7.280795 -6.91088,-13.676632 -14.23009,-13.937446 -0.8881,-0.05935 -1.77803,-0.07757 -2.66796,-0.07031 -0.81828,-3.468077 -4.16563,-5.988629 -7.67773,-6.134766 -0.32537,-0.01426 -0.65301,-0.02659 -0.97852,-0.01953 z" />
    <path
       id="rect1-6-1"
       style="fill:#f2f2f2;fill-opacity:1;stroke:none;stroke-width:3;stroke-dasharray:none;stroke-opacity:1"
       d="m 96.30397,11.355469 c -5.200916,0.0864 -10.40661,-6.4e-4 -15.609364,0.04126 -2.180465,0.04131 -4.372047,-0.0271 -6.545195,0.11119 -1.070515,0.157238 -2.104992,0.550728 -3.017316,1.130756 -1.86582,-1.192879 -4.148949,-1.389841 -6.305455,-1.235804 -2.704967,0.03433 -5.455987,-0.207065 -8.123088,0.326775 -0.68438,0.191003 -1.34354,0.47699 -1.94841,0.850435 -1.847579,-1.150272 -4.077931,-1.326696 -6.199219,-1.191406 -4.032719,0.05968 -8.078462,-0.119841 -12.102242,0.141217 -3.105642,0.482864 -5.702636,2.992061 -6.520805,5.993549 -3.988469,0.02944 -7.990204,-0.122785 -11.968759,0.179847 -7.100007,0.990367 -12.9793766,7.636316 -12.8832048,14.842404 -0.066771,9.690519 -0.013178,19.38182 -0.032032,29.07267 0.010721,13.386088 -0.028469,26.774537 0.064451,40.159088 0.5224835,7.35736 7.1476318,13.77066 14.5607068,13.8499 3.857325,0.11796 7.718043,-3.1e-4 11.576808,0.0484 25.511717,-0.009 51.024813,0.0255 76.535654,-0.0446 7.37627,-0.40713 13.88957,-6.96161 14.07033,-14.37954 0.13458,-3.890327 0.004,-7.784617 0.0567,-11.676637 -0.0107,-19.352315 0.036,-38.706139 -0.0553,-58.057476 -0.46912,-7.280795 -6.91088,-13.676632 -14.23009,-13.937446 -0.8881,-0.05935 -1.77803,-0.07757 -2.66796,-0.07031 -0.81828,-3.468077 -4.16563,-5.988629 -7.677734,-6.134766 -0.325369,-0.01426 -0.653011,-0.02659 -0.978515,-0.01953 z" />
    <path
       id="rect1-6"
       style="fill:#96c362;fill-opacity:1;stroke:#40396e;stroke-width:3;stroke-dasharray:none;stroke-opacity:1"
       d="m 37.940145,19.374144 c -0.155577,0 -0.28125,0.125673 -0.28125,0.28125 v 5.847656 h -17.30664 c -4.044327,0 -7.300782,3.254502 -7.300782,7.298828 v 67.554692 c 0,4.04433 3.256455,7.30078 7.300782,7.30078 h 86.261715 c 4.04433,0 7.30078,-3.25645 7.30078,-7.30078 V 32.801878 c 0,-4.044326 -3.25645,-7.298828 -7.30078,-7.298828 h -9.373044 v -5.86914 c 0,-0.143829 -0.115937,-0.259766 -0.259765,-0.259766 H 75.514364 c -0.143829,0 -0.259766,0.115937 -0.259766,0.259766 v 5.86914 H 67.04952 v -5.832031 c 0,-0.164326 -0.132549,-0.296875 -0.296875,-0.296875 h -7.695312 c -0.164326,0 -0.296875,0.132549 -0.296875,0.296875 v 5.832031 h -7.996094 v -5.847656 c 0,-0.155577 -0.125673,-0.28125 -0.28125,-0.28125 z" />
    <rect
       style="fill:#ffffff;fill-opacity:1;stroke:none;stroke-width:2.47349;stroke-dasharray:none"
       id="rect2"
       width="10.260684"
       height="10.075655"
       x="39.090088"
       y="20.851957"
       ry="0.2438283" />
    <rect
       style="fill:#ffffff;fill-opacity:1;stroke:none;stroke-width:2.26582;stroke-dasharray:none"
       id="rect2-1"
       width="5.4010649"
       height="10.72822"
       x="60.213104"
       y="20.851957"
       ry="0.25962019" />
    <rect
       style="fill:#ff7575;fill-opacity:1;stroke:none;stroke-width:2.59874;stroke-dasharray:none;stroke-opacity:1"
       id="rect2-1-6"
       width="19.099794"
       height="9.2670069"
       x="76.706474"
       y="20.784811"
       ry="0.2242592" />
    <rect
       style="fill:#f9f9f9;fill-opacity:1;stroke:none;stroke-width:1.46142;stroke-dasharray:none;stroke-opacity:1"
       id="rect2-1-6-4"
       width="12.829506"
       height="4.3629827"
       x="79.81279"
       y="20.786478"
       ry="0.10558307" />
    <rect
       style="fill:#d9eeff;fill-opacity:1;stroke:none;stroke-width:4.52135;stroke-dasharray:none;stroke-opacity:1"
       id="rect3-8"
       width="31.043116"
       height="31.654202"
       x="71.824059"
       y="38.041363"
       ry="0.16186601" />
    <rect
       style="fill:#ffe385;fill-opacity:1;stroke:none;stroke-width:1.93156;stroke-dasharray:none;stroke-opacity:1"
       id="rect3-8-3"
       width="5.665586"
       height="31.654202"
       x="49.205067"
       y="38.041367"
       ry="0.16186601" />
    <rect
       style="fill:#ffe385;fill-opacity:1;stroke:none;stroke-width:1.93156;stroke-dasharray:none;stroke-opacity:1"
       id="rect3-8-3-0-6"
       width="5.665586"
       height="31.654202"
       x="37.873898"
       y="38.041367"
       ry="0.16186601" />
    <rect
       style="fill:#ffe385;fill-opacity:1;stroke:none;stroke-width:1.93156;stroke-dasharray:none;stroke-opacity:1"
       id="rect3-8-3-0-6-7-6"
       width="5.665586"
       height="31.654202"
       x="26.542728"
       y="38.041367"
       ry="0.16186601" />
    <rect
       style="fill:#40396e;fill-opacity:1;stroke:none;stroke-width:3;stroke-dasharray:none;stroke-opacity:1"
       id="rect3"
       width="20.952398"
       height="20.647621"
       x="76.869415"
       y="43.544655"
       ry="0.10558307" />
    <rect
       style="fill:#d9eeff;fill-opacity:1;stroke:none;stroke-width:3.04247;stroke-dasharray:none;stroke-opacity:1"
       id="rect4"
       width="45.281334"
       height="5.7111249"
       x="26.542728"
       y="79.814453"
       ry="0.10558307" />
    <rect
       style="fill:#ffe385;fill-opacity:1;stroke:none;stroke-width:3.04247;stroke-dasharray:none;stroke-opacity:1"
       id="rect4-5-9"
       width="45.281334"
       height="5.7111249"
       x="26.542732"
       y="91.23671"
       ry="0.10558307" />
    <circle
       style="fill:#d9eeff;fill-opacity:1;stroke:none;stroke-width:3;stroke-dasharray:none;stroke-opacity:1"
       id="path4"
       cx="93.000038"
       cy="88.925423"
       r="9.1109705" />
  </g>
</svg>
