<?xml version="1.0" encoding="UTF-8" standalone="no"?>
<!-- Created with Inkscape (http://www.inkscape.org/) -->

<svg
   version="1.1"
   id="svg1"
   width="133.33333"
   height="133.33333"
   viewBox="0 0 133.33333 133.33333"
   sodipodi:docname="icons8-spaceship.svg"
   inkscape:version="1.3.2 (091e20ef0f, 2023-11-25, custom)"
   xmlns:inkscape="http://www.inkscape.org/namespaces/inkscape"
   xmlns:sodipodi="http://sodipodi.sourceforge.net/DTD/sodipodi-0.dtd"
   xmlns="http://www.w3.org/2000/svg"
   xmlns:svg="http://www.w3.org/2000/svg">
  <defs
     id="defs1" />
  <sodipodi:namedview
     id="namedview1"
     pagecolor="#ffffff"
     bordercolor="#000000"
     borderopacity="0.25"
     inkscape:showpageshadow="2"
     inkscape:pageopacity="0.0"
     inkscape:pagecheckerboard="0"
     inkscape:deskcolor="#d1d1d1"
     inkscape:zoom="4.4123465"
     inkscape:cx="66.404577"
     inkscape:cy="47.820361"
     inkscape:window-width="1904"
     inkscape:window-height="1022"
     inkscape:window-x="8"
     inkscape:window-y="22"
     inkscape:window-maximized="0"
     inkscape:current-layer="g1" />
  <g
     inkscape:groupmode="layer"
     inkscape:label="Image"
     id="g1">
    <g
       id="g13">
      <path
         id="path1-6-2-6"
         style="fill:#000000;fill-opacity:0.345098;stroke:none;stroke-width:1;stroke-dasharray:none;stroke-opacity:1"
         d="m 67.837512,9.6095982 c -5.06729,4.1194198 -10.16986,8.3823458 -13.84239,13.8521738 -4.28448,6.127722 -7.12321,13.469219 -7.02136,21.019595 -0.0185,1.919571 -0.009,3.839415 -0.0171,5.759091 -1.79992,-1.346138 -3.37831,-3.031314 -5.41407,-4.03125 -2.40222,-1.129297 -5.13858,-1.208814 -7.74277,-1.07249 -3.22256,0.214112 -6.47699,1.617693 -8.38768,4.30421 -1.72368,2.277425 -2.39406,5.20204 -2.19112,8.021782 -0.0291,2.32362 -0.0118,4.647388 -0.0124,6.971107 -1.34179,0 -2.68359,0 -4.02539,0 0,13.314453 0,26.628906 0,39.943353 6.17831,2.0647 12.35731,4.1273 18.53516,6.19336 0,5.49089 0,10.98177 0,16.47266 20.12239,0 40.24479,0 60.36718,0 0,-5.49089 0,-10.98177 0,-16.47266 6.177858,-2.06605 12.356858,-4.12866 18.535158,-6.19336 0,-13.314447 0,-26.6289 0,-39.943353 -1.34179,0 -2.68359,0 -4.02539,0 -0.0663,-3.701089 0.2106,-7.43193 -0.33323,-11.10716 -1.06668,-4.537187 -5.39247,-8.059778 -10.06083,-8.147916 -3.645618,-0.385656 -7.657448,0.172912 -10.475068,2.707393 -0.95834,0.753525 -1.91667,1.507049 -2.87501,2.260574 -0.13312,-4.635253 0.23621,-9.369833 -1.03125,-13.888672 -0.15775,-0.595074 -0.40836,-1.501747 -0.64695,-2.204215 -2.77447,-8.357581 -8.39869,-15.547323 -15.16875,-21.07664 -1.36783,-1.144382 -2.77241,-2.275244 -4.16673,-3.3675828 z" />
      <path
         id="path1-6-2"
         style="fill:#f2f2f2;fill-opacity:1;stroke:none;stroke-width:1;stroke-dasharray:none;stroke-opacity:1"
         d="M 65.65625,6.9726562 C 60.588955,11.092076 55.486389,15.355002 51.813861,20.82483 c -4.284484,6.127722 -7.123218,13.469219 -7.021367,21.019595 -0.01852,1.919571 -0.0092,3.839415 -0.0171,5.759091 -1.799917,-1.346138 -3.378308,-3.031314 -5.414063,-4.03125 -2.402222,-1.129297 -5.138584,-1.208814 -7.742778,-1.07249 -3.222561,0.214112 -6.476984,1.617693 -8.387672,4.30421 -1.723688,2.277425 -2.394061,5.20204 -2.191121,8.021782 -0.02909,2.32362 -0.01183,4.647388 -0.01241,6.971107 -1.341797,0 -2.683594,0 -4.025391,0 0,13.314453 0,26.628906 0,39.943355 6.178304,2.0647 12.357309,4.1273 18.535156,6.19336 0,5.49089 0,10.98177 0,16.47266 20.122396,0 40.244792,0 60.367188,0 0,-5.49089 0,-10.98177 0,-16.47266 6.177853,-2.06605 12.356853,-4.12866 18.535153,-6.19336 0,-13.314449 0,-26.628902 0,-39.943355 -1.34179,0 -2.68359,0 -4.02539,0 -0.0663,-3.701089 0.2106,-7.43193 -0.33323,-11.10716 -1.06668,-4.537187 -5.39247,-8.059778 -10.06083,-8.147916 -3.645618,-0.385656 -7.657446,0.172912 -10.475065,2.707393 -0.958338,0.753525 -1.916676,1.507049 -2.875013,2.260574 -0.133118,-4.635253 0.236213,-9.369833 -1.03125,-13.888672 C 85.480926,33.02602 85.230319,32.119347 84.991731,31.416879 82.217262,23.059298 76.593041,15.869556 69.822979,10.340239 68.455153,9.1958577 67.050572,8.0649955 65.65625,6.9726562 Z" />
      <g
         id="g12"
         transform="translate(-95.859553,-1.8068173)">
        <path
           id="path1"
           style="fill:#f9b84f;fill-opacity:1;stroke:none"
           d="m 124.88411,59.939851 h 8.44922 v -4.158203 c 0,-3.391767 -2.04544,-3.529297 -4.1211,-3.529297 -2.07566,0 -4.32812,0.104789 -4.32812,3.34961 z" />
        <path
           id="path5"
           style="fill:#707cc0;fill-opacity:1;stroke:none;stroke-opacity:1"
           d="m 124.88411,71.603914 h 8.44922 V 59.939851 h -8.44922 z" />
        <path
           id="path4"
           style="fill:#f9b84f;fill-opacity:1;stroke:none"
           d="m 189.82552,59.939851 h 8.44922 v -4.33789 c 0,-3.244818 -2.25246,-3.34961 -4.32813,-3.34961 -2.07566,0 -4.12109,0.137534 -4.12109,3.529297 z" />
        <path
           id="path7"
           style="fill:#707cc0;fill-opacity:1;stroke:none;stroke-opacity:1"
           d="m 189.82552,71.603914 h 8.44922 V 59.939851 h -8.44922 z" />
        <path
           id="path6"
           style="fill:#f9b84f;fill-opacity:1;stroke:none"
           d="m 154.03645,108.8754 -14.64062,-4.89258 v 14.23047 h 14.64062 z" />
        <path
           id="path12"
           style="fill:#f9b84f;fill-opacity:1;stroke:none"
           d="m 183.76302,103.98282 -14.64063,4.89258 v 9.33789 h 14.64063 z" />
        <path
           id="path11"
           style="fill:#9aa2e6;fill-opacity:1;stroke:none"
           d="m 161.57942,19.144929 c 0,0 -12.92187,10.203447 -12.92187,24.044922 v 26.94336 h -2.33789 v 7.599609 h -9.31836 v -6.009765 h -3.66797 v -0.119141 h -8.44922 -4.02344 v 26.185547 l 18.53516,6.193359 14.64062,4.89258 7.54297,2.52149 7.54297,-2.52149 14.64063,-4.89258 18.53516,-6.193359 V 71.603914 h -4.02344 -8.44922 v 0.119141 h -3.66797 v 6.009765 h -9.31836 v -7.599609 h -2.33789 v -26.94336 c 0,-13.841475 -12.92188,-24.044922 -12.92188,-24.044922 z" />
        <path
           id="rect1"
           style="fill:#9aa2e6;fill-opacity:1;stroke:#7a7dbc;stroke-width:3;stroke-dasharray:none;stroke-opacity:1"
           d="m 146.31966,70.133211 h 30.51953 V 91.557654 L 161.9658,97.05343 146.31966,91.557654 Z"
           sodipodi:nodetypes="cccccc" />
        <rect
           style="fill:#7a7dbc;fill-opacity:1;stroke:none"
           id="rect12"
           width="4.3642416"
           height="24.14871"
           x="159.39729"
           y="45.984501" />
        <path
           id="path1-6"
           style="fill:none;fill-opacity:1;stroke:#40396e;stroke-width:3;stroke-dasharray:none;stroke-opacity:1"
           d="m 161.57942,19.144929 c 0,0 -12.92187,10.203461 -12.92187,24.044922 V 70.13321 h -2.3379 v 7.59961 h -9.31836 v -6.009766 h -3.66796 V 71.603913 59.939851 55.781648 c 0,-3.391764 -2.04544,-3.529297 -4.1211,-3.529297 -2.07566,0 -4.32812,0.104791 -4.32812,3.349609 v 4.337891 11.664062 h -4.02344 v 26.185546 l 18.53516,6.193361 v 14.23047 h 14.64062 v -9.33789 l 7.54297,2.52148 7.54297,-2.52148 v 9.33789 h 14.64062 v -14.23047 l 18.53516,-6.193361 V 71.603913 h -4.02344 V 59.939851 55.60196 c 0,-3.244815 -2.25245,-3.349609 -4.32812,-3.349609 -2.07566,0 -4.1211,0.137537 -4.1211,3.529297 v 4.158203 11.664062 0.119141 h -3.66796 v 6.009766 h -9.31836 v -7.59961 h -2.3379 V 43.189851 c 0,-13.841461 -12.92187,-24.044922 -12.92187,-24.044922 z" />
      </g>
    </g>
  </g>
</svg>
