<?xml version="1.0" encoding="UTF-8" standalone="no"?>
<!-- Created with Inkscape (http://www.inkscape.org/) -->

<svg
   version="1.1"
   id="svg1"
   width="200"
   height="200"
   viewBox="0 0 200 200"
   sodipodi:docname="logoicmc.svg"
   inkscape:version="1.3.2 (091e20ef0f, 2023-11-25, custom)"
   xmlns:inkscape="http://www.inkscape.org/namespaces/inkscape"
   xmlns:sodipodi="http://sodipodi.sourceforge.net/DTD/sodipodi-0.dtd"
   xmlns="http://www.w3.org/2000/svg"
   xmlns:svg="http://www.w3.org/2000/svg">
  <defs
     id="defs1" />
  <sodipodi:namedview
     id="namedview1"
     pagecolor="#ffffff"
     bordercolor="#000000"
     borderopacity="0.25"
     inkscape:showpageshadow="2"
     inkscape:pageopacity="0.0"
     inkscape:pagecheckerboard="0"
     inkscape:deskcolor="#d1d1d1"
     inkscape:zoom="1.4646603"
     inkscape:cx="232.8185"
     inkscape:cy="170.68805"
     inkscape:window-width="1904"
     inkscape:window-height="1022"
     inkscape:window-x="8"
     inkscape:window-y="22"
     inkscape:window-maximized="0"
     inkscape:current-layer="g1">
    <inkscape:page
       x="0"
       y="0"
       inkscape:label="1"
       id="page1"
       width="200"
       height="200"
       margin="0"
       bleed="0" />
  </sodipodi:namedview>
  <g
     id="g1"
     inkscape:groupmode="layer"
     inkscape:label="1">
    <g
       id="g251"
       transform="matrix(0.59130987,0,0,0.59130987,-8.9363885,-136.52767)">
      <path
         id="path1"
         d="m -2976.61,877.674 c -536.6,39.801 -1001.53,75.149 -1170.35,-145.573 -168.81,-220.714 -113.2,-607.536 427.6,-684.1633"
         style="fill:none;stroke:#3d4094;stroke-width:63.6059;stroke-linecap:butt;stroke-linejoin:miter;stroke-miterlimit:2.61313;stroke-dasharray:none;stroke-opacity:1"
         transform="matrix(-0.07692373,0.0564096,-0.0564096,-0.07692373,0,564)" />
      <path
         id="path2"
         d="m -1941.45,1597.89 c -165.12,104.25 -349.71,213.25 -528.53,281.73 -154.63,56.9 -217.3,-57.21 -148.96,-141.42 l 120.41,-106.86"
         style="fill:none;stroke:#3d4094;stroke-width:51.462;stroke-linecap:butt;stroke-linejoin:miter;stroke-miterlimit:2.61313;stroke-dasharray:none;stroke-opacity:1"
         transform="matrix(-0.1167244,0.01660893,-0.01660893,-0.1167244,0,564)" />
      <path
         id="path3"
         d="m -2330.61,1824.31 c -294.24,-308.64 -473.28,-634.69 -595.49,-937.637 -114.34,-331.882 139.44,-874.3898 772.95,-652.745"
         style="fill:none;stroke:#3d4094;stroke-width:51.462;stroke-linecap:butt;stroke-linejoin:miter;stroke-miterlimit:2.61313;stroke-dasharray:none;stroke-opacity:1"
         transform="matrix(-0.1167244,0.01660893,-0.01660893,-0.1167244,0,564)" />
      <path
         id="path4"
         d="m -2142.34,1715.84 c -258.46,-296.03 -446.97,-634.71 -566.03,-933.445 -53.76,-176.73 107.62,-413.019 387.51,-346.893"
         style="fill:none;stroke:#3d4094;stroke-width:51.462;stroke-linecap:butt;stroke-linejoin:miter;stroke-miterlimit:2.61313;stroke-dasharray:none;stroke-opacity:1"
         transform="matrix(-0.1167244,0.01660893,-0.01660893,-0.1167244,0,564)" />
      <path
         id="path5"
         d="m -2292.6,1108.32 c -54.22,-67.83 -74.79,-160.933 -103.25,-251.399 -88.33,-857.95796 1003.71,-980.606 1308.05,-478.912"
         style="fill:none;stroke:#3d4094;stroke-width:51.462;stroke-linecap:butt;stroke-linejoin:miter;stroke-miterlimit:2.61313;stroke-dasharray:none;stroke-opacity:1"
         transform="matrix(-0.1167244,0.01660893,-0.01660893,-0.1167244,0,564)" />
      <path
         id="path6"
         d="m -3109.77,861.025 c 218.92,-139.137 439.22,-229.436 633.27,-418.689 135.99,-168.068 243.43,-378.3315 141.43,-666.72"
         style="fill:none;stroke:#3d4094;stroke-width:60.4515;stroke-linecap:butt;stroke-linejoin:miter;stroke-miterlimit:2.61313;stroke-dasharray:none;stroke-opacity:1"
         transform="matrix(-0.091006,0.04232733,-0.04232733,-0.091006,0,564)" />
      <path
         id="path7"
         d="m -3210.67,611.692 c 171.75,-79.148 346.35,-195.522 495.62,-309.225 99.42,-79.054 178.38,-259.1873 108.53,-378.4176"
         style="fill:none;stroke:#3d4094;stroke-width:60.4515;stroke-linecap:butt;stroke-linejoin:miter;stroke-miterlimit:2.61313;stroke-dasharray:none;stroke-opacity:1"
         transform="matrix(-0.091006,0.04232733,-0.04232733,-0.091006,0,564)" />
      <path
         id="path8"
         d="M 226.253,2774.15 C -469.442,2779.12 -449.828,1878 33.2119,1686.35"
         style="fill:none;stroke:#3d4094;stroke-width:61.1893;stroke-linecap:butt;stroke-linejoin:miter;stroke-miterlimit:2.61313;stroke-dasharray:none;stroke-opacity:1"
         transform="matrix(-0.04475653,-0.0885768,0.0885768,-0.04475653,0,564)" />
      <path
         id="path9"
         d="m -2280.59,441.661 c 51.16,-629.535 636.45,-930.097 1187.15,-514.8592 329.233,258.5372 293.143,836.4182 -267.43,1126.5982 -207.62,104.31 -403.13,137.68 -609.26,208.86"
         style="fill:none;stroke:#3d4094;stroke-width:63.6059;stroke-linecap:butt;stroke-linejoin:miter;stroke-miterlimit:2.61313;stroke-dasharray:none;stroke-opacity:1"
         transform="matrix(-0.07692373,0.0564096,-0.0564096,-0.07692373,0,564)" />
      <path
         id="path10"
         d="m -2467.28,1044.19 c 225.83,-102.181 447.98,-196.446 649.76,-319.455 135.08,-62.468 234.41,-213.855 228.13,-366.163"
         style="fill:none;stroke:#3d4094;stroke-width:60.4515;stroke-linecap:butt;stroke-linejoin:miter;stroke-miterlimit:2.61313;stroke-dasharray:none;stroke-opacity:1"
         transform="matrix(-0.091006,0.04232733,-0.04232733,-0.091006,0,564)" />
      <path
         id="path11"
         d="m -1999.84,1671.42 c -192.74,-274.7 -329.53,-583.17 -462.67,-863.825"
         style="fill:none;stroke:#3d4094;stroke-width:57.8126;stroke-linecap:butt;stroke-linejoin:miter;stroke-miterlimit:2.61313;stroke-dasharray:none;stroke-opacity:1"
         transform="matrix(-0.09907373,0.0342596,-0.0342596,-0.09907373,0,564)" />
      <path
         id="path12"
         d="m -2385.92,1294.07 c 262.5,-118.86 520.03,-206.3 755.82,-371.328 198.37,-105.319 318.98,-333.544 340.54,-607.847"
         style="fill:none;stroke:#3d4094;stroke-width:60.4515;stroke-linecap:butt;stroke-linejoin:miter;stroke-miterlimit:2.61313;stroke-dasharray:none;stroke-opacity:1"
         transform="matrix(-0.091006,0.04232733,-0.04232733,-0.091006,0,564)" />
      <path
         id="path13"
         d="m -1281.05,996.763 c -56.9,-154.631 15.54,-426.117 376.963,-404.751 153.625,29.379 341.024,243.902 134.442,533.878 -84.63,119.46 -174.005,219.47 -286.525,323.69"
         style="fill:none;stroke:#3d4094;stroke-width:51.462;stroke-linecap:butt;stroke-linejoin:miter;stroke-miterlimit:2.61313;stroke-dasharray:none;stroke-opacity:1"
         transform="matrix(-0.1167244,0.01660893,-0.01660893,-0.1167244,0,564)" />
      <path
         id="path14"
         d="m -1738,978.579 c 0.65,299.081 255.6,673.081 226.12,943.691 -113.6,544.73 -669.94,435.37 -866.48,-84.94"
         style="fill:none;stroke:#3d4094;stroke-width:60.4515;stroke-linecap:butt;stroke-linejoin:miter;stroke-miterlimit:2.61313;stroke-dasharray:none;stroke-opacity:1"
         transform="matrix(-0.091006,0.04232733,-0.04232733,-0.091006,0,564)" />
      <path
         id="path15"
         d="m -2005.75,1119.1 c 59.98,254.39 156.36,482.34 206.58,737.02 -27.18,213.85 -196.44,173.68 -343.31,-111.49"
         style="fill:none;stroke:#3d4094;stroke-width:60.4515;stroke-linecap:butt;stroke-linejoin:miter;stroke-miterlimit:2.61313;stroke-dasharray:none;stroke-opacity:1"
         transform="matrix(-0.091006,0.04232733,-0.04232733,-0.091006,0,564)" />
      <path
         id="path16"
         d="m -2268.72,1031.9 c -248.4,74.4 -523.99,100.36 -784.26,97.64 -154.73,-22.24 -190.82,-128.53 -222.46,-248.648"
         style="fill:none;stroke:#3d4094;stroke-width:63.6059;stroke-linecap:butt;stroke-linejoin:miter;stroke-miterlimit:2.61313;stroke-dasharray:none;stroke-opacity:1"
         transform="matrix(-0.07692373,0.0564096,-0.0564096,-0.07692373,0,564)" />
      <path
         id="path17"
         d="m -2225.21,1314.66 c -301.06,52.9 -624.85,129.03 -938.75,98.38 -289.68,-87 -361.11,-316.12 -386.33,-522.755"
         style="fill:none;stroke:#3d4094;stroke-width:63.6059;stroke-linecap:butt;stroke-linejoin:miter;stroke-miterlimit:2.61313;stroke-dasharray:none;stroke-opacity:1"
         transform="matrix(-0.07692373,0.0564096,-0.0564096,-0.07692373,0,564)" />
      <path
         id="path18"
         d="M -3140.88,170.17 C -3503.71,107.587 -3755.8,75.3553 -3853.15,38.9104 -4407.26,-99.7351 -4148.87,-600.133 -3707.69,-521.533"
         style="fill:none;stroke:#3d4094;stroke-width:125.457;stroke-linecap:butt;stroke-linejoin:miter;stroke-miterlimit:2.61313;stroke-dasharray:none;stroke-opacity:1"
         transform="matrix(-0.06423253,0.0691008,-0.0691008,-0.06423253,0,564)" />
      <path
         id="path19"
         d="m -2233.67,1758.78 c -165.06,-265.13 -318.41,-512.93 -433.15,-782.799"
         style="fill:none;stroke:#3d4094;stroke-width:57.8126;stroke-linecap:butt;stroke-linejoin:miter;stroke-miterlimit:2.61313;stroke-dasharray:none;stroke-opacity:1"
         transform="matrix(-0.09907373,0.0342596,-0.0342596,-0.09907373,0,564)" />
      <path
         id="path20"
         d="m -3557.8,-32.5403 c -28.95,-468.1277 37.23,-929.4967 135.35,-1274.5697 74.52,-329.49 562.18,-712.98 975.4,-138.72"
         style="fill:none;stroke:#3d4094;stroke-width:125.457;stroke-linecap:butt;stroke-linejoin:miter;stroke-miterlimit:2.61313;stroke-dasharray:none;stroke-opacity:1"
         transform="matrix(-0.06423253,0.0691008,-0.0691008,-0.06423253,0,564)" />
      <path
         id="path21"
         d="M 569.777,3261.4 C 415.428,3040.83 225.534,2324.28 -329.112,2505.54"
         style="fill:none;stroke:#3d4094;stroke-width:120.358;stroke-linecap:butt;stroke-linejoin:miter;stroke-miterlimit:2.61313;stroke-dasharray:none;stroke-opacity:1"
         transform="matrix(-0.04685733,-0.086476,0.086476,-0.04685733,0,564)" />
      <path
         id="path22"
         d="m -2962.53,-750.881 c 197.83,-913.769 1417.97,-638.969 1472.92,198.501"
         style="fill:none;stroke:#3d4094;stroke-width:125.457;stroke-linecap:butt;stroke-linejoin:miter;stroke-miterlimit:2.61313;stroke-dasharray:none;stroke-opacity:1"
         transform="matrix(-0.06423253,0.0691008,-0.0691008,-0.06423253,0,564)" />
      <path
         id="path23"
         d="m -2363.13,1578.56 c -158.36,-293.03 -266.54,-601.436 -384.12,-899.773"
         style="fill:none;stroke:#3d4094;stroke-width:117.66;stroke-linecap:butt;stroke-linejoin:miter;stroke-miterlimit:2.61313;stroke-dasharray:none;stroke-opacity:1"
         transform="matrix(-0.09147173,0.0418616,-0.0418616,-0.09147173,0,564)" />
      <path
         id="path24"
         d="m -2864.95,180.245 c 305.85,1.299 592.47,-11.259 860.59,-57.392 215.31,-41.4704 371.69,-180.4873 464.53,-381.031"
         style="fill:none;stroke:#3d4094;stroke-width:125.457;stroke-linecap:butt;stroke-linejoin:miter;stroke-miterlimit:2.61313;stroke-dasharray:none;stroke-opacity:1"
         transform="matrix(-0.06423253,0.0691008,-0.0691008,-0.06423253,0,564)" />
      <path
         id="path25"
         d="m -1912.26,792.42 c -32.92,-389.042 272.2,-762.4168 808.86,-531.2 211.112,125.38 323.587,445.351 87.61,730.505 -127.4,152.655 -368.08,301.415 -625.63,413.695"
         style="fill:none;stroke:#3d4094;stroke-width:117.66;stroke-linecap:butt;stroke-linejoin:miter;stroke-miterlimit:2.61313;stroke-dasharray:none;stroke-opacity:1"
         transform="matrix(-0.09147173,0.0418616,-0.0418616,-0.09147173,0,564)" />
      <path
         id="path26"
         d="m -1863.89,1063.88 c 44.08,259.9 223.94,610.71 228.51,799.78 -3.43,353.23 -401.21,415.71 -604.26,-41.6"
         style="fill:none;stroke:#3d4094;stroke-width:117.66;stroke-linecap:butt;stroke-linejoin:miter;stroke-miterlimit:2.61313;stroke-dasharray:none;stroke-opacity:1"
         transform="matrix(-0.09147173,0.0418616,-0.0418616,-0.09147173,0,564)" />
      <path
         id="path27"
         d="m -1879.15,1526.76 c -234.1,113.42 -438.83,173.14 -691.94,244.3 -284.02,23.44 -344.22,-138.36 -423.58,-289.74"
         style="fill:none;stroke:#3d4094;stroke-width:117.66;stroke-linecap:butt;stroke-linejoin:miter;stroke-miterlimit:2.61313;stroke-dasharray:none;stroke-opacity:1"
         transform="matrix(-0.09147173,0.0418616,-0.0418616,-0.09147173,0,564)" />
      <path
         id="path28"
         d="m 1013.76,1400.57 c -121.705,154.59 -259.854,279.58 -374.975,437.47 -49.351,154.6 78.934,180.91 269.715,32.89 -190.781,148.02 -319.066,121.71 -269.715,-32.89 115.121,-157.89 253.27,-282.88 374.975,-437.47"
         style="fill:#3d4094;fill-opacity:1;fill-rule:evenodd;stroke:none"
         transform="matrix(0.13333333,0,0,-0.13333333,0,564)" />
      <path
         id="path29"
         d="m 1013.76,1400.57 c -121.705,154.59 -259.854,279.58 -374.975,437.47 -49.351,154.6 78.934,180.91 269.715,32.89 -190.781,148.02 -319.066,121.71 -269.715,-32.89 115.121,-157.89 253.27,-282.88 374.975,-437.47 z"
         style="fill:none;stroke:#3d4094;stroke-width:8.5039;stroke-linecap:butt;stroke-linejoin:miter;stroke-miterlimit:2.61313;stroke-dasharray:none;stroke-opacity:1"
         transform="matrix(0.13333333,0,0,-0.13333333,0,564)" />
      <path
         id="path30"
         d="M 1286.76,1571.61 C 1138.75,1413.73 1007.18,1259.14 901.922,1097.96 819.691,966.395 816.395,818.371 875.605,673.652 c -59.21,144.719 -55.914,292.743 26.317,424.308 105.258,161.18 236.828,315.77 384.838,473.65"
         style="fill:#3d4094;fill-opacity:1;fill-rule:evenodd;stroke:none"
         transform="matrix(0.13333333,0,0,-0.13333333,0,564)" />
      <path
         id="path31"
         d="M 1286.76,1571.61 C 1138.75,1413.73 1007.18,1259.14 901.922,1097.96 819.691,966.395 816.395,818.371 875.605,673.652 c -59.21,144.719 -55.914,292.743 26.317,424.308 105.258,161.18 236.828,315.77 384.838,473.65 z"
         style="fill:none;stroke:#3d4094;stroke-width:8.5039;stroke-linecap:butt;stroke-linejoin:miter;stroke-miterlimit:2.61313;stroke-dasharray:none;stroke-opacity:1"
         transform="matrix(0.13333333,0,0,-0.13333333,0,564)" />
    </g>
  </g>
</svg>
